<svg width="98" height="131" viewBox="0 0 98 131" fill="none" xmlns="http://www.w3.org/2000/svg">
<path d="M94.0228 85.4686L31.1051 24.2228C33.0998 20.286 33.5031 15.5584 31.8277 11.1131C28.6601 2.70757 19.2443 -1.55352 10.8386 1.61452C2.43283 4.78257 -1.82794 14.1983 1.33998 22.6037C3.00207 27.0137 6.38503 30.28 10.4387 31.9338L3.5904 119.549C3.48398 120.554 3.21163 123.307 3.87258 125.061C5.68686 129.875 12.0325 131.587 23.8422 130.448C33.6605 129.501 45.1982 126.669 56.3307 122.473C67.4633 118.278 78.0001 112.79 86.0007 107.021C95.6243 100.082 99.2615 94.6072 97.4472 89.7934C97.2804 89.3518 96.7755 88.0132 94.0228 85.4686ZM18.0276 69.1469L43.0484 50.4544L53.0755 60.215L16.5951 87.4726L18.0276 69.1469ZM15.5108 101.348L60.6684 67.6063L70.6943 77.3658L14.078 119.671L15.5108 101.348ZM22.3292 32.1026C22.7732 31.9352 23.2029 31.7468 23.6232 31.5455L35.4552 43.063L19.1121 55.2723L20.8867 32.5683C21.3701 32.4353 21.8513 32.2827 22.3292 32.1026ZM52.6393 112.68C45.4565 115.387 38.9058 117.216 33.2573 118.405L78.2874 84.7569L86.5622 92.812C83.1328 96.7672 71.5211 105.564 52.6393 112.68Z" fill="url(#paint0_linear_64_28)"/>
<defs>
<linearGradient id="paint0_linear_64_28" x1="10.7873" y1="1.63384" x2="56.3307" y2="122.473" gradientUnits="userSpaceOnUse">
<stop offset="0.174" stop-color="#9AEAAC"/>
<stop offset="0.571762" stop-color="#B99A74"/>
<stop offset="0.9999" stop-color="#E91D1D"/>
<stop offset="1" stop-color="#E91D1D"/>
</linearGradient>
</defs>
</svg>
