<svg width="67" height="61" viewBox="0 0 67 61" fill="none" xmlns="http://www.w3.org/2000/svg">
<g clip-path="url(#clip0_64_29)">
<path d="M59.3356 47.4092H7.66358C5.8696 47.4092 4.41016 48.7379 4.41016 50.3712V58.0378C4.41016 59.6711 5.8696 60.9999 7.66358 60.9999H59.3356C61.1295 60.9999 62.589 59.6711 62.589 58.0378V50.3712C62.589 48.7379 61.1295 47.4092 59.3356 47.4092Z" fill="url(#paint0_linear_64_29)"/>
<path d="M11.8745 43.2278H54.9345C56.7285 43.2278 58.1879 41.899 58.1879 40.2657V34.5158C58.1879 32.8825 56.7285 31.5537 54.9345 31.5537H11.8745C10.0805 31.5537 8.62109 32.8825 8.62109 34.5158V40.2657C8.62109 41.899 10.0805 43.2278 11.8745 43.2278Z" fill="url(#paint1_linear_64_29)"/>
<path d="M18.3804 27.7203H48.6181C50.412 27.7203 51.8715 26.3915 51.8715 24.7582V20.9249C51.8715 19.2916 50.412 17.9629 48.6181 17.9629H36.3699V11.8645C36.3699 10.9755 35.8815 10.1914 35.1366 9.71925C36.6656 8.95591 37.7132 7.17988 37.7132 5.06026C37.7134 2.27679 34.4865 0 33.4393 0C32.2687 0 29.1653 2.29839 29.1653 5.06026C29.1653 7.21229 30.2454 9.00957 31.8124 9.75288C31.0961 10.228 30.6285 10.9957 30.6285 11.8643V17.9627H18.3804C16.5864 17.9627 15.127 19.2914 15.127 20.9248V24.758C15.127 26.3915 16.5864 27.7203 18.3804 27.7203Z" fill="url(#paint2_linear_64_29)"/>
</g>
<defs>
<linearGradient id="paint0_linear_64_29" x1="33.4996" y1="47.4092" x2="33.4996" y2="60.9999" gradientUnits="userSpaceOnUse">
<stop stop-color="#97F71E"/>
<stop offset="0.925" stop-color="#FAFF00"/>
</linearGradient>
<linearGradient id="paint1_linear_64_29" x1="33.4045" y1="31.5537" x2="33.4045" y2="43.2278" gradientUnits="userSpaceOnUse">
<stop stop-color="#97F71E"/>
<stop offset="0.925" stop-color="#FAFF00"/>
</linearGradient>
<linearGradient id="paint2_linear_64_29" x1="33.4992" y1="0" x2="33.4992" y2="27.7203" gradientUnits="userSpaceOnUse">
<stop stop-color="#97F71E"/>
<stop offset="0.925" stop-color="#FAFF00"/>
</linearGradient>
<clipPath id="clip0_64_29">
<rect width="67" height="61" fill="white"/>
</clipPath>
</defs>
</svg>
