<svg width="600" height="600" viewBox="0 0 600 600" fill="none" xmlns="http://www.w3.org/2000/svg">
<path d="M218.171 168.173L322.914 272.917L427.657 377.66L248.242 452.332L68.8281 527.003L143.499 347.588L218.171 168.173Z" fill="#F1B31C"/>
<path d="M333.332 291.666L214.102 172.243L136.593 354.495L59.0859 536.746L333.332 291.666Z" fill="#FCEA2B"/>
<path d="M126.862 377.374L219.045 469.557L172.953 488.32L107.977 423.343L126.862 377.374Z" fill="#EA5A47"/>
<path d="M144.523 460.396L172.956 488.32L219.048 469.557L179.04 429.55L144.523 460.396Z" fill="#D22F27"/>
<path d="M173.368 268.021L229.173 323.826L326.665 421.319L274.391 445.181L206.293 377.081L151.25 322.039L173.368 268.021Z" fill="#EA5A47"/>
<path d="M221.141 391.927L274.394 445.18L326.669 421.318L261.346 355.998L221.141 391.927Z" fill="#D22F27"/>
<path d="M252.456 136.906C261.66 136.906 269.122 129.553 269.122 120.482C269.122 111.412 261.66 104.059 252.456 104.059C243.251 104.059 235.789 111.412 235.789 120.482C235.789 129.553 243.251 136.906 252.456 136.906Z" fill="#8967AA"/>
<path d="M502.456 170.239C511.66 170.239 519.122 162.886 519.122 153.816C519.122 144.746 511.66 137.393 502.456 137.393C493.251 137.393 485.789 144.746 485.789 153.816C485.789 162.886 493.251 170.239 502.456 170.239Z" fill="#F1B31C"/>
<path d="M477.456 345.239C486.66 345.239 494.122 337.886 494.122 328.816C494.122 319.746 486.66 312.393 477.456 312.393C468.251 312.393 460.789 319.746 460.789 328.816C460.789 337.886 468.251 345.239 477.456 345.239Z" fill="#D22F27"/>
<path d="M422.188 380.329L423.589 381.73L241.338 459.239L59.0859 536.747L136.594 354.495L214.102 172.244" stroke="black" stroke-width="22.2222" stroke-miterlimit="10" stroke-linecap="round" stroke-linejoin="round"/>
<path d="M215.008 173.149L318.846 276.987L422.188 380.329" stroke="black" stroke-width="22.2222" stroke-miterlimit="10" stroke-linecap="round" stroke-linejoin="round"/>
<path d="M214.102 172.244L215.007 173.149" stroke="black" stroke-width="22.2222" stroke-miterlimit="10" stroke-linecap="round" stroke-linejoin="round"/>
<path d="M387.422 61.3926C389.377 65.1317 390.777 69.2509 391.502 73.6676C395.261 96.5617 379.444 118.785 356.176 123.305" stroke="black" stroke-width="22.2222" stroke-miterlimit="10" stroke-linecap="round" stroke-linejoin="round"/>
<path d="M357.772 123.136C353.564 123.456 349.328 124.447 345.197 126.169C323.783 135.097 313.297 160.277 321.776 182.412" stroke="black" stroke-width="22.2222" stroke-miterlimit="10" stroke-linecap="round" stroke-linejoin="round"/>
<path d="M514.939 222.64C514.116 226.779 512.624 230.865 510.418 234.76C498.985 254.948 472.727 262.335 451.77 251.26" stroke="black" stroke-width="22.2222" stroke-miterlimit="10" stroke-linecap="round" stroke-linejoin="round"/>
<path d="M453.118 252.132C449.641 249.742 445.72 247.857 441.422 246.607C419.144 240.128 395.183 253.162 387.902 275.72" stroke="black" stroke-width="22.2222" stroke-miterlimit="10" stroke-linecap="round" stroke-linejoin="round"/>
</svg>
